<svg id="visual" viewBox="0 0 960 540" width="960" height="540" xmlns="http://www.w3.org/2000/svg" xmlns:xlink="http://www.w3.org/1999/xlink" version="1.1"><rect x="0" y="0" width="960" height="540" fill="#001220"></rect><path d="M0 181L32 185.3C64 189.7 128 198.3 192 202.5C256 206.7 320 206.3 384 207.3C448 208.3 512 210.7 576 206.7C640 202.7 704 192.3 768 188C832 183.7 896 185.3 928 186.2L960 187L960 541L928 541C896 541 832 541 768 541C704 541 640 541 576 541C512 541 448 541 384 541C320 541 256 541 192 541C128 541 64 541 32 541L0 541Z" fill="#c62368"></path><path d="M0 206L32 212C64 218 128 230 192 231.2C256 232.3 320 222.7 384 222.2C448 221.7 512 230.3 576 236.2C640 242 704 245 768 238.5C832 232 896 216 928 208L960 200L960 541L928 541C896 541 832 541 768 541C704 541 640 541 576 541C512 541 448 541 384 541C320 541 256 541 192 541C128 541 64 541 32 541L0 541Z" fill="#cc2b68"></path><path d="M0 220L32 222.7C64 225.3 128 230.7 192 236.7C256 242.7 320 249.3 384 252.2C448 255 512 254 576 256C640 258 704 263 768 265.7C832 268.3 896 268.7 928 268.8L960 269L960 541L928 541C896 541 832 541 768 541C704 541 640 541 576 541C512 541 448 541 384 541C320 541 256 541 192 541C128 541 64 541 32 541L0 541Z" fill="#d13367"></path><path d="M0 303L32 295.2C64 287.3 128 271.7 192 271.5C256 271.3 320 286.7 384 293.3C448 300 512 298 576 291C640 284 704 272 768 270.7C832 269.3 896 278.7 928 283.3L960 288L960 541L928 541C896 541 832 541 768 541C704 541 640 541 576 541C512 541 448 541 384 541C320 541 256 541 192 541C128 541 64 541 32 541L0 541Z" fill="#d73a67"></path><path d="M0 301L32 303.3C64 305.7 128 310.3 192 311.7C256 313 320 311 384 307.3C448 303.7 512 298.3 576 295C640 291.7 704 290.3 768 295.3C832 300.3 896 311.7 928 317.3L960 323L960 541L928 541C896 541 832 541 768 541C704 541 640 541 576 541C512 541 448 541 384 541C320 541 256 541 192 541C128 541 64 541 32 541L0 541Z" fill="#dc4167"></path><path d="M0 317L32 315.7C64 314.3 128 311.7 192 318.3C256 325 320 341 384 349.5C448 358 512 359 576 352.8C640 346.7 704 333.3 768 329.2C832 325 896 330 928 332.5L960 335L960 541L928 541C896 541 832 541 768 541C704 541 640 541 576 541C512 541 448 541 384 541C320 541 256 541 192 541C128 541 64 541 32 541L0 541Z" fill="#e14867"></path><path d="M0 347L32 352.7C64 358.3 128 369.7 192 371C256 372.3 320 363.7 384 364.2C448 364.7 512 374.3 576 375.5C640 376.7 704 369.3 768 364.5C832 359.7 896 357.3 928 356.2L960 355L960 541L928 541C896 541 832 541 768 541C704 541 640 541 576 541C512 541 448 541 384 541C320 541 256 541 192 541C128 541 64 541 32 541L0 541Z" fill="#e54f67"></path><path d="M0 382L32 388.5C64 395 128 408 192 406.8C256 405.7 320 390.3 384 382.5C448 374.7 512 374.3 576 378.5C640 382.7 704 391.3 768 392C832 392.7 896 385.3 928 381.7L960 378L960 541L928 541C896 541 832 541 768 541C704 541 640 541 576 541C512 541 448 541 384 541C320 541 256 541 192 541C128 541 64 541 32 541L0 541Z" fill="#ea5667"></path><path d="M0 406L32 406.7C64 407.3 128 408.7 192 412.7C256 416.7 320 423.3 384 424.7C448 426 512 422 576 418.7C640 415.3 704 412.7 768 416.7C832 420.7 896 431.3 928 436.7L960 442L960 541L928 541C896 541 832 541 768 541C704 541 640 541 576 541C512 541 448 541 384 541C320 541 256 541 192 541C128 541 64 541 32 541L0 541Z" fill="#ee5d67"></path><path d="M0 424L32 424.7C64 425.3 128 426.7 192 429C256 431.3 320 434.7 384 441.7C448 448.7 512 459.3 576 458.2C640 457 704 444 768 442.5C832 441 896 451 928 456L960 461L960 541L928 541C896 541 832 541 768 541C704 541 640 541 576 541C512 541 448 541 384 541C320 541 256 541 192 541C128 541 64 541 32 541L0 541Z" fill="#f26467"></path><path d="M0 495L32 496.7C64 498.3 128 501.7 192 500.3C256 499 320 493 384 493.5C448 494 512 501 576 499C640 497 704 486 768 476.7C832 467.3 896 459.7 928 455.8L960 452L960 541L928 541C896 541 832 541 768 541C704 541 640 541 576 541C512 541 448 541 384 541C320 541 256 541 192 541C128 541 64 541 32 541L0 541Z" fill="#f66b68"></path><path d="M0 493L32 498.7C64 504.3 128 515.7 192 522C256 528.3 320 529.7 384 525.3C448 521 512 511 576 511.2C640 511.3 704 521.7 768 524C832 526.3 896 520.7 928 517.8L960 515L960 541L928 541C896 541 832 541 768 541C704 541 640 541 576 541C512 541 448 541 384 541C320 541 256 541 192 541C128 541 64 541 32 541L0 541Z" fill="#fa7268"></path></svg>