<svg id="visual" viewBox="0 0 960 540" width="960" height="540" xmlns="http://www.w3.org/2000/svg" xmlns:xlink="http://www.w3.org/1999/xlink" version="1.1"><rect x="0" y="0" width="960" height="540" fill="#001220"></rect><path d="M0 376L22.8 376C45.7 376 91.3 376 137 368.3C182.7 360.7 228.3 345.3 274 336.2C319.7 327 365.3 324 411.2 335.5C457 347 503 373 548.8 372.8C594.7 372.7 640.3 346.3 686 341.2C731.7 336 777.3 352 823 363.7C868.7 375.3 914.3 382.7 937.2 386.3L960 390L960 541L937.2 541C914.3 541 868.7 541 823 541C777.3 541 731.7 541 686 541C640.3 541 594.7 541 548.8 541C503 541 457 541 411.2 541C365.3 541 319.7 541 274 541C228.3 541 182.7 541 137 541C91.3 541 45.7 541 22.8 541L0 541Z" fill="#fa7268"></path><path d="M0 382L22.8 382.3C45.7 382.7 91.3 383.3 137 386.5C182.7 389.7 228.3 395.3 274 392.7C319.7 390 365.3 379 411.2 377.8C457 376.7 503 385.3 548.8 387.2C594.7 389 640.3 384 686 388.2C731.7 392.3 777.3 405.7 823 414.2C868.7 422.7 914.3 426.3 937.2 428.2L960 430L960 541L937.2 541C914.3 541 868.7 541 823 541C777.3 541 731.7 541 686 541C640.3 541 594.7 541 548.8 541C503 541 457 541 411.2 541C365.3 541 319.7 541 274 541C228.3 541 182.7 541 137 541C91.3 541 45.7 541 22.8 541L0 541Z" fill="#ef5f67"></path><path d="M0 421L22.8 422.8C45.7 424.7 91.3 428.3 137 425.3C182.7 422.3 228.3 412.7 274 416.8C319.7 421 365.3 439 411.2 443C457 447 503 437 548.8 433.3C594.7 429.7 640.3 432.3 686 436.7C731.7 441 777.3 447 823 448.8C868.7 450.7 914.3 448.3 937.2 447.2L960 446L960 541L937.2 541C914.3 541 868.7 541 823 541C777.3 541 731.7 541 686 541C640.3 541 594.7 541 548.8 541C503 541 457 541 411.2 541C365.3 541 319.7 541 274 541C228.3 541 182.7 541 137 541C91.3 541 45.7 541 22.8 541L0 541Z" fill="#e34c67"></path><path d="M0 471L22.8 469.3C45.7 467.7 91.3 464.3 137 465C182.7 465.7 228.3 470.3 274 468.8C319.7 467.3 365.3 459.7 411.2 459C457 458.3 503 464.7 548.8 467.5C594.7 470.3 640.3 469.7 686 467.5C731.7 465.3 777.3 461.7 823 462.7C868.7 463.7 914.3 469.3 937.2 472.2L960 475L960 541L937.2 541C914.3 541 868.7 541 823 541C777.3 541 731.7 541 686 541C640.3 541 594.7 541 548.8 541C503 541 457 541 411.2 541C365.3 541 319.7 541 274 541C228.3 541 182.7 541 137 541C91.3 541 45.7 541 22.8 541L0 541Z" fill="#d53867"></path><path d="M0 499L22.8 498.2C45.7 497.3 91.3 495.7 137 497.5C182.7 499.3 228.3 504.7 274 507.3C319.7 510 365.3 510 411.2 507.8C457 505.7 503 501.3 548.8 497.7C594.7 494 640.3 491 686 493.5C731.7 496 777.3 504 823 504.2C868.7 504.3 914.3 496.7 937.2 492.8L960 489L960 541L937.2 541C914.3 541 868.7 541 823 541C777.3 541 731.7 541 686 541C640.3 541 594.7 541 548.8 541C503 541 457 541 411.2 541C365.3 541 319.7 541 274 541C228.3 541 182.7 541 137 541C91.3 541 45.7 541 22.8 541L0 541Z" fill="#c62368"></path></svg>