<svg id="visual" viewBox="0 0 960 540" width="960" height="540" xmlns="http://www.w3.org/2000/svg" xmlns:xlink="http://www.w3.org/1999/xlink" version="1.1"><rect x="0" y="0" width="960" height="540" fill="#001220"></rect><path d="M0 357L32 352.7C64 348.3 128 339.7 192 335.5C256 331.3 320 331.7 384 330.7C448 329.7 512 327.3 576 331.3C640 335.3 704 345.7 768 350C832 354.3 896 352.7 928 351.8L960 351L960 0L928 0C896 0 832 0 768 0C704 0 640 0 576 0C512 0 448 0 384 0C320 0 256 0 192 0C128 0 64 0 32 0L0 0Z" fill="#fa7268"></path><path d="M0 332L32 326C64 320 128 308 192 306.8C256 305.7 320 315.3 384 315.8C448 316.3 512 307.7 576 301.8C640 296 704 293 768 299.5C832 306 896 322 928 330L960 338L960 0L928 0C896 0 832 0 768 0C704 0 640 0 576 0C512 0 448 0 384 0C320 0 256 0 192 0C128 0 64 0 32 0L0 0Z" fill="#f06167"></path><path d="M0 318L32 315.3C64 312.7 128 307.3 192 301.3C256 295.3 320 288.7 384 285.8C448 283 512 284 576 282C640 280 704 275 768 272.3C832 269.7 896 269.3 928 269.2L960 269L960 0L928 0C896 0 832 0 768 0C704 0 640 0 576 0C512 0 448 0 384 0C320 0 256 0 192 0C128 0 64 0 32 0L0 0Z" fill="#e54f67"></path><path d="M0 235L32 242.8C64 250.7 128 266.3 192 266.5C256 266.7 320 251.3 384 244.7C448 238 512 240 576 247C640 254 704 266 768 267.3C832 268.7 896 259.3 928 254.7L960 250L960 0L928 0C896 0 832 0 768 0C704 0 640 0 576 0C512 0 448 0 384 0C320 0 256 0 192 0C128 0 64 0 32 0L0 0Z" fill="#d93e67"></path><path d="M0 237L32 234.7C64 232.3 128 227.7 192 226.3C256 225 320 227 384 230.7C448 234.3 512 239.7 576 243C640 246.3 704 247.7 768 242.7C832 237.7 896 226.3 928 220.7L960 215L960 0L928 0C896 0 832 0 768 0C704 0 640 0 576 0C512 0 448 0 384 0C320 0 256 0 192 0C128 0 64 0 32 0L0 0Z" fill="#cc2b68"></path><path d="M0 221L32 222.3C64 223.7 128 226.3 192 219.7C256 213 320 197 384 188.5C448 180 512 179 576 185.2C640 191.3 704 204.7 768 208.8C832 213 896 208 928 205.5L960 203L960 0L928 0C896 0 832 0 768 0C704 0 640 0 576 0C512 0 448 0 384 0C320 0 256 0 192 0C128 0 64 0 32 0L0 0Z" fill="#c62368"></path><path d="M0 191L32 185.3C64 179.7 128 168.3 192 167C256 165.7 320 174.3 384 173.8C448 173.3 512 163.7 576 162.5C640 161.3 704 168.7 768 173.5C832 178.3 896 180.7 928 181.8L960 183L960 0L928 0C896 0 832 0 768 0C704 0 640 0 576 0C512 0 448 0 384 0C320 0 256 0 192 0C128 0 64 0 32 0L0 0Z" fill="#c62368"></path><path d="M0 156L32 149.5C64 143 128 130 192 131.2C256 132.3 320 147.7 384 155.5C448 163.3 512 163.7 576 159.5C640 155.3 704 146.7 768 146C832 145.3 896 152.7 928 156.3L960 160L960 0L928 0C896 0 832 0 768 0C704 0 640 0 576 0C512 0 448 0 384 0C320 0 256 0 192 0C128 0 64 0 32 0L0 0Z" fill="#cc2b68"></path><path d="M0 132L32 131.3C64 130.7 128 129.3 192 125.3C256 121.3 320 114.7 384 113.3C448 112 512 116 576 119.3C640 122.7 704 125.3 768 121.3C832 117.3 896 106.7 928 101.3L960 96L960 0L928 0C896 0 832 0 768 0C704 0 640 0 576 0C512 0 448 0 384 0C320 0 256 0 192 0C128 0 64 0 32 0L0 0Z" fill="#d93e67"></path><path d="M0 114L32 113.3C64 112.7 128 111.3 192 109C256 106.7 320 103.3 384 96.3C448 89.3 512 78.7 576 79.8C640 81 704 94 768 95.5C832 97 896 87 928 82L960 77L960 0L928 0C896 0 832 0 768 0C704 0 640 0 576 0C512 0 448 0 384 0C320 0 256 0 192 0C128 0 64 0 32 0L0 0Z" fill="#e54f67"></path><path d="M0 43L32 41.3C64 39.7 128 36.3 192 37.7C256 39 320 45 384 44.5C448 44 512 37 576 39C640 41 704 52 768 61.3C832 70.7 896 78.3 928 82.2L960 86L960 0L928 0C896 0 832 0 768 0C704 0 640 0 576 0C512 0 448 0 384 0C320 0 256 0 192 0C128 0 64 0 32 0L0 0Z" fill="#f06167"></path><path d="M0 45L32 39.3C64 33.7 128 22.3 192 16C256 9.7 320 8.3 384 12.7C448 17 512 27 576 26.8C640 26.7 704 16.3 768 14C832 11.7 896 17.3 928 20.2L960 23L960 0L928 0C896 0 832 0 768 0C704 0 640 0 576 0C512 0 448 0 384 0C320 0 256 0 192 0C128 0 64 0 32 0L0 0Z" fill="#fa7268"></path></svg>