<svg id="visual" viewBox="0 0 960 540" width="960" height="540" xmlns="http://www.w3.org/2000/svg" xmlns:xlink="http://www.w3.org/1999/xlink" version="1.1"><rect x="0" y="0" width="960" height="540" fill="#001220"></rect><path d="M0 317L22.8 318C45.7 319 91.3 321 137 328.3C182.7 335.7 228.3 348.3 274 356.3C319.7 364.3 365.3 367.7 411.2 367.7C457 367.7 503 364.3 548.8 362.5C594.7 360.7 640.3 360.3 686 346.3C731.7 332.3 777.3 304.7 823 297.8C868.7 291 914.3 305 937.2 312L960 319L960 0L937.2 0C914.3 0 868.7 0 823 0C777.3 0 731.7 0 686 0C640.3 0 594.7 0 548.8 0C503 0 457 0 411.2 0C365.3 0 319.7 0 274 0C228.3 0 182.7 0 137 0C91.3 0 45.7 0 22.8 0L0 0Z" fill="#c62368"></path><path d="M0 260L22.8 263.8C45.7 267.7 91.3 275.3 137 277.2C182.7 279 228.3 275 274 282.5C319.7 290 365.3 309 411.2 312.2C457 315.3 503 302.7 548.8 308.5C594.7 314.3 640.3 338.7 686 347.8C731.7 357 777.3 351 823 347.2C868.7 343.3 914.3 341.7 937.2 340.8L960 340L960 0L937.2 0C914.3 0 868.7 0 823 0C777.3 0 731.7 0 686 0C640.3 0 594.7 0 548.8 0C503 0 457 0 411.2 0C365.3 0 319.7 0 274 0C228.3 0 182.7 0 137 0C91.3 0 45.7 0 22.8 0L0 0Z" fill="#d53867"></path><path d="M0 282L22.8 266C45.7 250 91.3 218 137 204.7C182.7 191.3 228.3 196.7 274 195.8C319.7 195 365.3 188 411.2 182.8C457 177.7 503 174.3 548.8 172.5C594.7 170.7 640.3 170.3 686 183.5C731.7 196.7 777.3 223.3 823 240.7C868.7 258 914.3 266 937.2 270L960 274L960 0L937.2 0C914.3 0 868.7 0 823 0C777.3 0 731.7 0 686 0C640.3 0 594.7 0 548.8 0C503 0 457 0 411.2 0C365.3 0 319.7 0 274 0C228.3 0 182.7 0 137 0C91.3 0 45.7 0 22.8 0L0 0Z" fill="#e34c67"></path><path d="M0 150L22.8 149.7C45.7 149.3 91.3 148.7 137 156.5C182.7 164.3 228.3 180.7 274 177.7C319.7 174.7 365.3 152.3 411.2 145.8C457 139.3 503 148.7 548.8 154.7C594.7 160.7 640.3 163.3 686 168.3C731.7 173.3 777.3 180.7 823 185C868.7 189.3 914.3 190.7 937.2 191.3L960 192L960 0L937.2 0C914.3 0 868.7 0 823 0C777.3 0 731.7 0 686 0C640.3 0 594.7 0 548.8 0C503 0 457 0 411.2 0C365.3 0 319.7 0 274 0C228.3 0 182.7 0 137 0C91.3 0 45.7 0 22.8 0L0 0Z" fill="#ef5f67"></path><path d="M0 89L22.8 89.5C45.7 90 91.3 91 137 86.7C182.7 82.3 228.3 72.7 274 73.7C319.7 74.7 365.3 86.3 411.2 97C457 107.7 503 117.3 548.8 121.7C594.7 126 640.3 125 686 113C731.7 101 777.3 78 823 69.2C868.7 60.3 914.3 65.7 937.2 68.3L960 71L960 0L937.2 0C914.3 0 868.7 0 823 0C777.3 0 731.7 0 686 0C640.3 0 594.7 0 548.8 0C503 0 457 0 411.2 0C365.3 0 319.7 0 274 0C228.3 0 182.7 0 137 0C91.3 0 45.7 0 22.8 0L0 0Z" fill="#fa7268"></path></svg>